<svg width="144" height="144" viewBox="0 0 144 144" fill="none" xmlns="http://www.w3.org/2000/svg">
<g clip-path="url(#clip0_93_3)">
<rect width="144" height="144" fill="white"/>
<rect width="144" height="144" fill="#4F5D2F"/>
<g filter="url(#filter0_d_93_3)">
<path d="M38.9729 52.75H20.8509L21.9169 46.6H66.0329L64.9669 52.75H46.7629L37.7429 104H29.9529L38.9729 52.75ZM104.375 68.822C107.218 69.3687 109.404 70.2707 110.935 71.528C112.52 72.7853 113.668 74.398 114.379 76.366C115.144 78.334 115.746 80.958 116.183 84.238L118.725 104H110.935L108.475 84.976C108.147 82.5707 107.737 80.7393 107.245 79.482C106.808 78.2247 105.878 77.1587 104.457 76.284C103.09 75.3547 100.958 74.7533 98.061 74.48L84.695 86.452L81.579 104H73.789L83.875 46.6H91.665L86.335 76.94L119.955 46.6H129.303L104.375 68.822Z" fill="#D4D4D4"/>
</g>
</g>
<defs>
<filter id="filter0_d_93_3" x="16.851" y="46.6" width="116.452" height="65.4" filterUnits="userSpaceOnUse" color-interpolation-filters="sRGB">
<feFlood flood-opacity="0" result="BackgroundImageFix"/>
<feColorMatrix in="SourceAlpha" type="matrix" values="0 0 0 0 0 0 0 0 0 0 0 0 0 0 0 0 0 0 127 0" result="hardAlpha"/>
<feOffset dy="4"/>
<feGaussianBlur stdDeviation="2"/>
<feComposite in2="hardAlpha" operator="out"/>
<feColorMatrix type="matrix" values="0 0 0 0 0 0 0 0 0 0 0 0 0 0 0 0 0 0 0.25 0"/>
<feBlend mode="normal" in2="BackgroundImageFix" result="effect1_dropShadow_93_3"/>
<feBlend mode="normal" in="SourceGraphic" in2="effect1_dropShadow_93_3" result="shape"/>
</filter>
<clipPath id="clip0_93_3">
<rect width="144" height="144" fill="white"/>
</clipPath>
</defs>
</svg>
