<svg width="144" height="144" viewBox="0 0 144 144" fill="none" xmlns="http://www.w3.org/2000/svg">
<g clip-path="url(#clip0_93_3)">
<rect width="144" height="144" fill="white"/>
<rect width="144" height="144" fill="#4F5D2F"/>
<g filter="url(#filter0_d_93_3)">
<path d="M39.824 55H23.912L24.848 49.6H63.584L62.648 55H46.664L38.744 100H31.904L39.824 55ZM94.3702 69.112C96.8662 69.592 98.7862 70.384 100.13 71.488C101.522 72.592 102.53 74.008 103.154 75.736C103.826 77.464 104.354 79.768 104.738 82.648L106.97 100H100.13L97.9702 83.296C97.6822 81.184 97.3222 79.576 96.8902 78.472C96.5062 77.368 95.6902 76.432 94.4422 75.664C93.2422 74.848 91.3702 74.32 88.8262 74.08L77.0902 84.592L74.3542 100H67.5142L76.3702 49.6H83.2102L78.5302 76.24L108.05 49.6H116.258L94.3702 69.112Z" fill="black"/>
</g>
</g>
<defs>
<filter id="filter0_d_93_3" x="19.912" y="49.6" width="100.346" height="58.4" filterUnits="userSpaceOnUse" color-interpolation-filters="sRGB">
<feFlood flood-opacity="0" result="BackgroundImageFix"/>
<feColorMatrix in="SourceAlpha" type="matrix" values="0 0 0 0 0 0 0 0 0 0 0 0 0 0 0 0 0 0 127 0" result="hardAlpha"/>
<feOffset dy="4"/>
<feGaussianBlur stdDeviation="2"/>
<feComposite in2="hardAlpha" operator="out"/>
<feColorMatrix type="matrix" values="0 0 0 0 0 0 0 0 0 0 0 0 0 0 0 0 0 0 0.25 0"/>
<feBlend mode="normal" in2="BackgroundImageFix" result="effect1_dropShadow_93_3"/>
<feBlend mode="normal" in="SourceGraphic" in2="effect1_dropShadow_93_3" result="shape"/>
</filter>
<clipPath id="clip0_93_3">
<rect width="144" height="144" fill="white"/>
</clipPath>
</defs>
</svg>
