<svg width="144" height="144" viewBox="0 0 144 144" fill="none" xmlns="http://www.w3.org/2000/svg">
<g clip-path="url(#clip0_93_3)">
<rect width="144" height="144" fill="white"/>
<rect width="144" height="144" fill="#4F5D2F"/>
<g filter="url(#filter0_d_93_3)">
<path d="M48.056 51.616H31.064L31.424 49.6H67.712L67.352 51.616H50.36L41.864 100H39.56L48.056 51.616ZM92.687 68.752C95.807 68.944 98.207 69.568 99.887 70.624C101.567 71.632 102.719 72.976 103.343 74.656C104.015 76.336 104.447 78.472 104.639 81.064L106.007 100H103.703L102.335 81.064C102.143 78.568 101.711 76.6 101.039 75.16C100.415 73.72 99.287 72.616 97.655 71.848C96.023 71.08 93.647 70.648 90.527 70.552L75.479 83.224L72.527 100H70.223L79.079 49.6H81.383L75.983 80.272L112.343 49.6H115.511L92.687 68.752Z" fill="#DFDFDF"/>
</g>
</g>
<defs>
<filter id="filter0_d_93_3" x="27.064" y="49.6" width="92.447" height="58.4" filterUnits="userSpaceOnUse" color-interpolation-filters="sRGB">
<feFlood flood-opacity="0" result="BackgroundImageFix"/>
<feColorMatrix in="SourceAlpha" type="matrix" values="0 0 0 0 0 0 0 0 0 0 0 0 0 0 0 0 0 0 127 0" result="hardAlpha"/>
<feOffset dy="4"/>
<feGaussianBlur stdDeviation="2"/>
<feComposite in2="hardAlpha" operator="out"/>
<feColorMatrix type="matrix" values="0 0 0 0 0 0 0 0 0 0 0 0 0 0 0 0 0 0 0.25 0"/>
<feBlend mode="normal" in2="BackgroundImageFix" result="effect1_dropShadow_93_3"/>
<feBlend mode="normal" in="SourceGraphic" in2="effect1_dropShadow_93_3" result="shape"/>
</filter>
<clipPath id="clip0_93_3">
<rect width="144" height="144" fill="white"/>
</clipPath>
</defs>
</svg>
