<svg width="144" height="144" viewBox="0 0 144 144" fill="none" xmlns="http://www.w3.org/2000/svg">
<g clip-path="url(#clip0_93_3)">
<rect width="144" height="144" fill="white"/>
<rect width="144" height="144" fill="#4F5D2F"/>
<g filter="url(#filter0_d_93_3)">
<path d="M46.688 53.776H30.344L31.064 49.6H68.936L68.216 53.776H51.872L43.736 100H38.552L46.688 53.776ZM97.8789 68.968C100.567 69.352 102.631 70.072 104.071 71.128C105.559 72.184 106.615 73.576 107.239 75.304C107.911 76.984 108.415 79.24 108.751 82.072L110.695 100H105.511L103.639 82.504C103.399 80.296 103.063 78.616 102.631 77.464C102.247 76.264 101.335 75.256 99.8949 74.44C98.5029 73.576 96.3429 73.048 93.4149 72.856L80.5269 84.16L77.7189 100H72.5349L81.3909 49.6H86.5749L81.6069 77.896L113.647 49.6H120.055L97.8789 68.968Z" fill="#DFDFDF"/>
</g>
</g>
<defs>
<filter id="filter0_d_93_3" x="26.344" y="49.6" width="97.7109" height="58.4" filterUnits="userSpaceOnUse" color-interpolation-filters="sRGB">
<feFlood flood-opacity="0" result="BackgroundImageFix"/>
<feColorMatrix in="SourceAlpha" type="matrix" values="0 0 0 0 0 0 0 0 0 0 0 0 0 0 0 0 0 0 127 0" result="hardAlpha"/>
<feOffset dy="4"/>
<feGaussianBlur stdDeviation="2"/>
<feComposite in2="hardAlpha" operator="out"/>
<feColorMatrix type="matrix" values="0 0 0 0 0 0 0 0 0 0 0 0 0 0 0 0 0 0 0.25 0"/>
<feBlend mode="normal" in2="BackgroundImageFix" result="effect1_dropShadow_93_3"/>
<feBlend mode="normal" in="SourceGraphic" in2="effect1_dropShadow_93_3" result="shape"/>
</filter>
<clipPath id="clip0_93_3">
<rect width="144" height="144" fill="white"/>
</clipPath>
</defs>
</svg>
